<?xml version="1.0" encoding="utf-8"?>
<!DOCTYPE svg PUBLIC "-//W3C//DTD SVG 1.1//EN" "http://www.w3.org/Graphics/SVG/1.1/DTD/svg11.dtd">
<svg version="1.1" xmlns="http://www.w3.org/2000/svg" width="348px" height="355px" viewBox="-3 -3 348 355">
<title>Interlaced Alpha and Omega of Christianity</title>
<path d="M136.613,193.436H98.632c-0.832,5.883-1.266,11.962-1.266,18.222c0,53.146,42.14,89.971,61.503,109.712h-33.789
	c-15.188,0-20.122-3.036-29.231-28.474l-10.252,0.379l6.456,55.426h92.631l2.657-6.837c-11.768-20.12-51.634-70.229-51.634-129.829
	C135.708,205.567,136.023,199.372,136.613,193.436z M330.458,292.896c-9.493,26.577-12.913,28.474-30.362,28.474h-31.893
	c17.079-20.121,61.114-57.708,61.114-110.858c0-69.088-49.73-114.261-115.786-114.261c-50.541,0-92.794,28.538-109.03,73.424h36.38
	c10.438-38.431,36.156-60.52,72.271-60.52c48.21,0,77.827,40.998,77.827,101.734c0,19.617-3.789,37.908-9.363,54.36h-8.329
	c-12.248,0-19.903-1.149-37.892-47.845l-38.642-99.207c-14.977,3.518-27.191,12.043-36.182,24.918l12.781,32.476h-96.38
	l49.72-118.561l19.806,50.326c12.105-7.406,25.598-12.675,39.955-15.604l-19.189-49.267c-5.359-13.78-10.716-27.56-14.927-42.486
	h-20.668c-3.445,13.013-8.421,26.026-13.78,38.658l-83.44,200.18c-9.186,22.583-18.754,26.411-30.236,26.411H0v11.1h78.848v-11.1
	h-4.976c-13.778,0-25.261,0-25.261-12.248c0-6.125,2.296-14.928,10.333-34.066l12.947-31.069h106.51l19.484,50.208
	c3.061,8.037,4.21,13.396,4.21,17.605c0,7.272-3.445,9.57-20.669,9.57h-8.42v11.1h104.484
	c-12.468,30.864-30.126,54.039-37.39,65.515l1.524,6.837h92.628l6.837-55.426L330.458,292.896z"/>
</svg>
